<?xml version="1.0" encoding="UTF-8" standalone="no"?>
<!-- Created with Inkscape (http://www.inkscape.org/) -->

<svg
   xmlns:dc="http://purl.org/dc/elements/1.1/"
   xmlns:cc="http://creativecommons.org/ns#"
   xmlns:rdf="http://www.w3.org/1999/02/22-rdf-syntax-ns#"
   xmlns:svg="http://www.w3.org/2000/svg"
   xmlns="http://www.w3.org/2000/svg"
   xmlns:sodipodi="http://sodipodi.sourceforge.net/DTD/sodipodi-0.dtd"
   xmlns:inkscape="http://www.inkscape.org/namespaces/inkscape"
   width="135.22267"
   height="54.53373"
   viewBox="0 0 35.777664 14.428716"
   version="1.1"
   id="svg1067"
   inkscape:version="0.92.0 r15299"
   sodipodi:docname="endeavor air.svg">
  <defs
     id="defs1061">
    <clipPath
       id="clipPath460"
       clipPathUnits="userSpaceOnUse">
      <path
         inkscape:connector-curvature="0"
         id="path458"
         d="m 448.65,70.325 h 127.101 v 40.15 H 448.65 Z" />
    </clipPath>
    <clipPath
       id="clipPath444"
       clipPathUnits="userSpaceOnUse">
      <path
         inkscape:connector-curvature="0"
         id="path442"
         d="m 461.857,70.325 h 100.687 v 40.15 H 461.857 Z" />
    </clipPath>
    <clipPath
       id="clipPath400"
       clipPathUnits="userSpaceOnUse">
      <path
         inkscape:connector-curvature="0"
         id="path398"
         d="m 448.65,70.325 h 127.101 v 40.15 H 448.65 Z" />
    </clipPath>
  </defs>
  <sodipodi:namedview
     id="base"
     pagecolor="#ffffff"
     bordercolor="#666666"
     borderopacity="1.0"
     inkscape:pageopacity="0.0"
     inkscape:pageshadow="2"
     inkscape:zoom="5.975146"
     inkscape:cx="67.111331"
     inkscape:cy="26.766868"
     inkscape:document-units="mm"
     inkscape:current-layer="layer1"
     showgrid="false"
     fit-margin-top="0"
     fit-margin-left="0"
     fit-margin-right="0"
     fit-margin-bottom="0"
     units="px"
     inkscape:window-width="1280"
     inkscape:window-height="744"
     inkscape:window-x="-4"
     inkscape:window-y="-4"
     inkscape:window-maximized="1" />
  <metadata
     id="metadata1064">
    <rdf:RDF>
      <cc:Work
         rdf:about="">
        <dc:format>image/svg+xml</dc:format>
        <dc:type
           rdf:resource="http://purl.org/dc/dcmitype/StillImage" />
        <dc:title></dc:title>
      </cc:Work>
    </rdf:RDF>
  </metadata>
  <g
     inkscape:label="Layer 1"
     inkscape:groupmode="layer"
     id="layer1"
     transform="translate(-85.187617,-171.83529)">
    <g
       id="g1332"
       transform="translate(0.13229312,-0.13228947)">
      <g
         transform="matrix(0.35277777,0,0,-0.35277777,112.41158,172.09987)"
         id="g402">
        <path
           inkscape:connector-curvature="0"
           id="path404"
           style="fill:#d21c2d;fill-opacity:1;fill-rule:nonzero;stroke:none"
           d="M 0,0 C 1.168,-0.221 4.784,-0.937 5.954,-1.149 6.034,-1.164 6.112,-1.19 6.222,-1.219 5.772,-1.776 5.29,-2.271 4.804,-2.761 1.675,-5.91 -1.756,-8.708 -5.307,-11.36 c -4.84,-3.616 -9.896,-6.894 -15.241,-9.717 -3.93,-2.075 -7.976,-3.88 -12.255,-5.125 -0.943,-0.274 -1.896,-0.511 -2.858,-0.712 -0.049,-0.01 -0.105,-0.003 -0.132,-0.06 -0.015,-0.141 -0.124,-0.173 -0.234,-0.211 -0.221,-0.077 -0.449,-0.067 -0.676,-0.069 -0.403,-0.004 -0.805,-10e-4 -1.209,-0.046 -0.21,-0.023 -0.459,-0.093 -0.625,0.139 0.898,0.142 1.8,0.258 2.689,0.457 2.865,0.644 5.567,1.72 8.172,3.057 4.601,2.363 8.749,5.389 12.701,8.702 2.977,2.495 5.798,5.159 8.521,7.927" />
      </g>
      <g
         transform="matrix(0.35277777,0,0,-0.35277777,98.816551,181.6817)"
         id="g406">
        <path
           inkscape:connector-curvature="0"
           id="path408"
           style="fill:#ab1b2c;fill-opacity:1;fill-rule:nonzero;stroke:none"
           d="M 0,0 C 0.912,0.098 1.841,-0.042 2.744,0.187 3.027,0.133 3.308,0.186 3.587,0.215 4.461,0.304 5.334,0.404 6.207,0.499 6.256,0.53 6.315,0.537 6.338,0.482 6.367,0.411 6.304,0.369 6.249,0.346 6.064,0.268 5.864,0.25 5.67,0.216 5.149,0.123 4.63,0.018 4.106,-0.056 2.401,-0.324 0.692,-0.568 -1.026,-0.738 -3.774,-1.01 -6.531,-1.161 -9.291,-1.24 c -2.813,-0.08 -5.626,-0.089 -8.44,-0.037 -3.587,0.067 -7.173,0.208 -10.755,0.418 -3.282,0.193 -6.562,0.422 -9.837,0.717 -0.103,0.009 -0.207,0.011 -0.31,0.016 v 4.162 c 2.47,-0.509 4.947,-0.98 7.434,-1.401 2.66,-0.451 5.328,-0.859 8.002,-1.216 2.655,-0.356 5.316,-0.661 7.983,-0.905 2.4,-0.219 4.804,-0.381 7.212,-0.484 2.274,-0.098 4.549,-0.112 6.825,-0.081 C -0.784,-0.046 -0.392,-0.018 0,0" />
      </g>
      <g
         transform="matrix(0.35277777,0,0,-0.35277777,117.35601,172.85139)"
         id="g410">
        <path
           inkscape:connector-curvature="0"
           id="path412"
           style="fill:#d21c2d;fill-opacity:1;fill-rule:nonzero;stroke:none"
           d="M 0,0 C 0.59,-0.039 2.01,-0.179 2.121,-0.189 4.841,-0.434 5.79,-0.486 8.51,-0.725 8.808,-0.752 9.177,-0.789 9.481,-0.815 9.184,-1.059 9.269,-0.994 9.184,-1.059 5.305,-4.022 1.207,-6.654 -3.013,-9.1 c -7.357,-4.262 -15.03,-7.843 -23.06,-10.648 -6.066,-2.118 -12.255,-3.758 -18.599,-4.799 -1.255,-0.206 -2.509,-0.415 -3.775,-0.54 0.62,0.142 1.24,0.284 1.86,0.427 0.089,0.021 0.176,0.053 0.263,0.081 0.002,0.001 0.003,0.019 -0.001,0.026 -0.004,0.009 -0.013,0.014 -0.021,0.021 0.81,0.157 1.623,0.305 2.431,0.471 4.862,1 9.535,2.584 14.072,4.583 6.866,3.025 13.231,6.908 19.31,11.28" />
      </g>
      <g
         id="g1302">
        <g
           id="g414"
           transform="matrix(0.35277777,0,0,-0.35277777,105.07956,184.61371)"
           style="fill:#002d52;fill-opacity:0.98431373">
          <path
             d="m 0,0 c 0.027,-0.249 0.042,-0.499 0.084,-0.746 0.428,-2.546 3.302,-3.85 5.42,-2.423 1.366,0.92 1.788,2.284 1.555,3.87 C 6.756,2.759 4.767,4.103 2.746,3.634 1.104,3.252 0.02,1.809 0,0 M 2.852,-4.678 C 2.641,-4.622 2.429,-4.571 2.22,-4.511 0.124,-3.906 -1.152,-2.007 -1.037,0.334 -0.924,2.631 0.942,4.545 3.185,4.664 5.747,4.801 7.756,3.22 8.125,0.799 8.539,-1.914 6.8,-4.264 4.346,-4.629 4.307,-4.635 4.27,-4.661 4.232,-4.678 Z"
             style="fill:#002d52;fill-opacity:0.98431373;fill-rule:nonzero;stroke:none"
             id="path416"
             inkscape:connector-curvature="0" />
        </g>
        <g
           id="g418"
           transform="matrix(0.35277777,0,0,-0.35277777,109.00894,184.64511)"
           style="fill:#002d52;fill-opacity:0.98431373">
          <path
             d="m 0,0 c 1.036,0 2.041,-0.033 3.041,0.017 0.401,0.02 0.824,0.166 1.183,0.356 0.63,0.334 0.893,0.92 0.85,1.626 C 5.031,2.691 4.671,3.189 4.026,3.427 3.68,3.555 3.298,3.627 2.929,3.64 2.052,3.67 1.173,3.65 0.294,3.649 c -0.099,0 -0.198,-0.009 -0.31,-0.014 0,-1.18 -0.001,-2.319 0,-3.459 0,-0.05 0.009,-0.1 0.016,-0.176 m 3.679,-0.763 c 0.927,-1.235 1.822,-2.428 2.763,-3.682 -0.438,0 -0.809,-0.014 -1.178,0.01 -0.087,0.005 -0.182,0.123 -0.246,0.209 -0.76,1.011 -1.521,2.021 -2.267,3.042 -0.14,0.192 -0.285,0.262 -0.518,0.257 C 1.502,-0.942 0.77,-0.933 -0.004,-0.933 v -3.493 h -1.024 v 9.007 c 0.026,0.014 0.044,0.031 0.062,0.031 C 0.497,4.601 1.96,4.601 3.422,4.565 3.749,4.558 4.083,4.458 4.395,4.346 5.542,3.933 6.147,3.014 6.113,1.784 6.081,0.632 5.381,-0.25 4.205,-0.617 4.047,-0.666 3.886,-0.705 3.679,-0.763"
             style="fill:#002d52;fill-opacity:0.98431373;fill-rule:nonzero;stroke:none"
             id="path420"
             inkscape:connector-curvature="0" />
        </g>
        <g
           id="g422"
           transform="matrix(0.35277777,0,0,-0.35277777,88.244118,183.01453)"
           style="fill:#002d52;fill-opacity:0.98431373">
          <path
             d="M 0,0 C 0.281,0 0.543,0.022 0.798,-0.01 0.91,-0.025 1.032,-0.131 1.109,-0.228 2.515,-2.009 3.915,-3.794 5.317,-5.578 5.736,-6.111 6.156,-6.642 6.629,-7.242 V -0.02 H 7.612 V -9.036 C 7.134,-9.134 6.783,-9.064 6.45,-8.63 4.731,-6.391 2.971,-4.184 1.225,-1.966 1.167,-1.893 1.104,-1.825 0.99,-1.693 v -7.36 H 0 Z"
             style="fill:#002d52;fill-opacity:0.98431373;fill-rule:nonzero;stroke:none"
             id="path424"
             inkscape:connector-curvature="0" />
        </g>
        <g
           id="g426"
           transform="matrix(0.35277777,0,0,-0.35277777,92.2086,185.86741)"
           style="fill:#002d52;fill-opacity:0.98431373">
          <path
             d="M 0,0 C 0.912,0 1.791,-0.052 2.663,0.011 4.482,0.142 5.756,1.539 5.852,3.43 5.942,5.193 4.726,6.764 2.973,7.026 2.163,7.147 1.327,7.091 0.503,7.114 0.34,7.118 0.176,7.114 0,7.114 Z m -1.05,3.585 c 0,1.39 0.005,2.78 -0.005,4.17 -0.002,0.253 0.061,0.345 0.33,0.338 C 0.444,8.063 1.621,8.128 2.782,8.018 4.568,7.849 5.943,6.963 6.595,5.244 7.249,3.52 6.993,1.882 5.732,0.487 c -0.903,-1 -2.095,-1.424 -3.418,-1.464 -1.023,-0.03 -2.048,0.002 -3.072,-0.011 -0.245,-0.003 -0.297,0.086 -0.296,0.309 0.008,1.421 0.004,2.842 0.004,4.264"
             style="fill:#002d52;fill-opacity:0.98431373;fill-rule:nonzero;stroke:none"
             id="path428"
             inkscape:connector-curvature="0" />
        </g>
        <g
           id="g430"
           transform="matrix(0.35277777,0,0,-0.35277777,85.544628,183.34734)"
           style="fill:#002d52;fill-opacity:0.98431373">
          <path
             d="m 0,0 v -3.085 h 4.909 v -0.939 h -4.927 v -0.563 c 0,-0.742 0.013,-1.485 -0.007,-2.227 -0.009,-0.296 0.065,-0.392 0.375,-0.389 1.6,0.015 3.2,0.007 4.8,0.007 H 5.545 V -8.104 H -1.012 V 0.921 H 5.485 V 0 Z"
             style="fill:#002d52;fill-opacity:0.98431373;fill-rule:nonzero;stroke:none"
             id="path432"
             inkscape:connector-curvature="0" />
        </g>
        <g
           id="g434"
           transform="matrix(0.35277777,0,0,-0.35277777,95.418348,183.01947)"
           style="fill:#002d52;fill-opacity:0.98431373">
          <path
             d="M 0,0 H 6.493 V -0.927 H 1.012 V -4.012 H 5.918 V -4.951 H 1.016 C 1.006,-5.08 0.993,-5.171 0.993,-5.261 0.991,-6.108 1.002,-6.956 0.986,-7.802 0.981,-8.071 1.072,-8.132 1.325,-8.13 c 1.611,0.01 3.221,0.005 4.832,0.005 H 6.554 V -9.032 H 0 Z"
             style="fill:#002d52;fill-opacity:0.98431373;fill-rule:nonzero;stroke:none"
             id="path436"
             inkscape:connector-curvature="0" />
        </g>
        <g
           id="g446"
           transform="matrix(0.35277777,0,0,-0.35277777,99.81283,183.42083)"
           style="fill:#002d52;fill-opacity:0.98431373">
          <path
             d="M 0,0 C -0.699,-1.562 -1.37,-3.06 -2.051,-4.583 H 2.041 C 1.359,-3.051 0.691,-1.552 0,0 m -4.595,-7.918 c 0.479,1.062 0.927,2.06 1.379,3.057 0.869,1.921 1.746,3.838 2.603,5.764 0.113,0.255 0.255,0.299 0.511,0.325 0.458,0.047 0.665,-0.127 0.849,-0.544 1.235,-2.786 2.502,-5.558 3.758,-8.335 0.033,-0.073 0.057,-0.15 0.101,-0.266 -0.345,0 -0.656,-0.015 -0.964,0.01 -0.08,0.007 -0.18,0.122 -0.221,0.211 -0.292,0.636 -0.576,1.275 -0.85,1.918 -0.075,0.177 -0.166,0.251 -0.368,0.25 -1.474,-0.009 -2.948,-0.009 -4.423,0 -0.202,10e-4 -0.287,-0.075 -0.363,-0.253 -0.271,-0.633 -0.571,-1.254 -0.839,-1.889 -0.084,-0.198 -0.192,-0.268 -0.4,-0.252 -0.237,0.018 -0.476,0.004 -0.773,0.004"
             style="fill:#002d52;fill-opacity:0.98431373;fill-rule:nonzero;stroke:none"
             id="path448"
             inkscape:connector-curvature="0" />
        </g>
        <g
           id="g450"
           transform="matrix(0.35277777,0,0,-0.35277777,102.88422,185.76274)"
           style="fill:#002d52;fill-opacity:0.98431373">
          <path
             d="M 0,0 C 0.321,0.769 0.619,1.479 0.914,2.19 1.649,3.964 2.386,5.737 3.114,7.514 3.196,7.715 3.289,7.818 3.522,7.796 3.77,7.773 4.022,7.791 4.32,7.791 4.277,7.667 4.25,7.571 4.212,7.48 3.004,4.648 1.791,1.817 0.591,-1.018 0.485,-1.268 0.361,-1.364 0.086,-1.349 c -0.689,0.038 -0.499,-0.12 -0.777,0.526 -1.19,2.772 -2.37,5.548 -3.553,8.323 -0.036,0.083 -0.064,0.17 -0.109,0.29 0.354,0 0.677,0.02 0.994,-0.012 0.092,-0.01 0.201,-0.156 0.246,-0.263 C -2.247,5.434 -1.389,3.349 -0.528,1.266 -0.362,0.863 -0.192,0.461 0,0"
             style="fill:#002d52;fill-opacity:0.98431373;fill-rule:nonzero;stroke:none"
             id="path452"
             inkscape:connector-curvature="0" />
        </g>
        <g
           id="g462"
           transform="matrix(0.35277777,0,0,-0.35277777,117.69824,183.25763)"
           style="fill:#002d52;fill-opacity:0.98431373">
          <path
             d="m 0,0 v -3.99 c 1.192,0 2.361,-0.021 3.529,0.013 0.333,0.009 0.677,0.139 0.988,0.276 0.832,0.368 1.246,1.141 1.131,2.033 C 5.541,-0.832 4.965,-0.156 4.005,-0.069 2.69,0.05 1.359,0.001 0.035,0.023 0.027,0.023 0.018,0.012 0,0 M 6.668,-8.357 C 6.581,-8.372 6.56,-8.375 6.54,-8.379 6.038,-8.467 5.704,-8.287 5.398,-7.856 4.672,-6.833 3.877,-5.86 3.121,-4.86 2.987,-4.683 2.847,-4.615 2.625,-4.618 1.758,-4.631 0.891,-4.623 -0.01,-4.623 V -8.356 H -0.678 V 0.701 C 0.948,0.622 2.57,0.84 4.175,0.556 4.856,0.436 5.454,0.106 5.881,-0.471 6.732,-1.619 6.41,-3.309 5.168,-4.013 4.74,-4.256 4.248,-4.388 3.757,-4.583 4.698,-5.804 5.669,-7.062 6.668,-8.357"
             style="fill:#002d52;fill-opacity:0.98431373;fill-rule:nonzero;stroke:none"
             id="path464"
             inkscape:connector-curvature="0" />
        </g>
        <g
           id="g466"
           transform="matrix(0.35277777,0,0,-0.35277777,114.75611,185.09645)"
           style="fill:#002d52;fill-opacity:0.98431373">
          <path
             d="M 0,0 C -0.792,1.742 -1.564,3.438 -2.366,5.201 -3.178,3.421 -3.951,1.729 -4.74,0 Z M 2.171,-3.12 C 2.123,-3.147 2.115,-3.155 2.106,-3.156 c -0.638,-0.059 -0.637,-0.058 -0.9,0.52 -0.262,0.58 -0.535,1.155 -0.786,1.74 -0.082,0.189 -0.181,0.265 -0.395,0.264 -1.598,-0.009 -3.198,-0.01 -4.797,0.001 -0.219,0.001 -0.312,-0.086 -0.391,-0.269 -0.259,-0.593 -0.531,-1.179 -0.796,-1.769 -0.252,-0.557 -0.251,-0.557 -0.919,-0.467 0.263,0.575 0.519,1.141 0.78,1.705 1.085,2.349 2.171,4.697 3.257,7.045 0.163,0.352 0.323,0.441 0.706,0.34 0.093,-0.025 0.18,-0.156 0.228,-0.257 0.937,-2.015 1.869,-4.033 2.801,-6.05 0.424,-0.916 0.846,-1.834 1.277,-2.767"
             style="fill:#002d52;fill-opacity:0.98431373;fill-rule:nonzero;stroke:none"
             id="path468"
             inkscape:connector-curvature="0" />
        </g>
        <path
           d="m 116.46454,186.20848 h -0.2226 v -3.18664 h 0.2226 z"
           style="fill:#002d52;fill-opacity:0.98431373;fill-rule:nonzero;stroke:none;stroke-width:0.35277778"
           id="path470"
           inkscape:connector-curvature="0" />
      </g>
    </g>
  </g>
</svg>
