<svg xmlns="http://www.w3.org/2000/svg" width="200" height="50.603">
  <path d="M18.715 1.165C5.866 1.165.5 11.336.5 19.32c0 9.32 6.109 17.872 17.722 17.872 9.945 0 13.49-6.09 16.209-11.52l-1.129-.804c-2.986 3.027-7.012 5.2-12.47 5.2-7.244 0-11.795-3.942-12.106-11.239h26.532C34.686 5.925 27.644 1.165 18.715 1.165zm-.733 4.205c4.244 0 7.92 2.639 8.181 8.554H8.865C10.18 7.956 13.7 5.37 17.982 5.37zM51.754 36.66H42.48V12.942c0-4.276-.903-5.524-2.966-5.513l-.264-.537L50.989.626c.474-.265.765-.083.765.279v5.35C53.6 4.23 57.806 1.078 64.26 1.078c4.657 0 12.013 2.108 12.013 12.327V36.66h-9.273V15.171c0-3.82-1.588-7.579-7.4-7.579-4.577 0-7.847 2.911-7.847 7.401zM102.06 36.66h-5.528L82.198 5.796c-.787-1.61-1.904-2.577-3.338-2.84v-.624h11.638c.546 0 .623.165.888.732l9.786 23.102 9.966-23.834h7.724v.57c-1.669.501-3.081 1.837-4.059 4.203zM137.077 1.073c-11.16 0-18.814 7.73-18.814 18.282 0 8.49 5.013 17.842 18.115 17.842 12.911 0 19.073-8.59 19.073-18.199 0-10.209-6.764-17.925-18.374-17.925zm-.671 4.31h.2c4.855 0 9.006 4.574 9.006 14.31 0 9.562-3.604 13.274-8.125 13.274-5.187 0-9.415-5.636-9.415-14.654 0-9.315 4.092-12.822 8.334-12.93z" fill="#260e62"/>
  <path d="M172.289 36.66L157.954 5.796c-.786-1.61-1.903-2.577-3.337-2.84v-.624h11.637c.546 0 .624.165.889.732l9.786 23.102 3.676-8.791 7.171-3.834-10.42 24.023c-2.452 5.372-3.987 7.253-5.85 9.082-1.65 1.562-5.1 3.457-10.926 3.457-1.993 0-3.419-.222-3.419-.222v-4.424s1.598.238 3.376.238c3.062 0 4.522-.29 6.575-1.82 2.037-1.514 3.873-4.45 5.177-7.215z" fill="#260e62"/>
  <path d="M182.979 11.696l3.916-9.364H199.5v.57z" fill="#a71a2d"/>
</svg>
