<svg xmlns="http://www.w3.org/2000/svg" viewBox="0 0 250 55" width="250" height="55">
	<style>
		tspan { white-space:pre }
		.shp0 { fill: #0f6744 } 
		.shp1 { fill: #9a9b9c } 
	</style>
	<g >
		<path fill-rule="evenodd" class="shp0" d="M89.73 0.01C91.03 0 91.46 0.03 92.4 0.16C93.01 0.25 93.92 0.43 94.43 0.56C94.93 0.69 95.6 0.89 95.91 1C96.23 1.12 96.87 1.4 97.33 1.62C97.8 1.84 98.41 2.16 98.69 2.33C98.97 2.5 99.47 2.84 99.8 3.09C100.14 3.34 100.67 3.78 100.98 4.07C101.29 4.36 101.79 4.88 102.09 5.23C102.38 5.58 102.8 6.13 103.01 6.44C103.22 6.75 103.58 7.37 103.81 7.81C104.03 8.26 104.33 8.92 104.47 9.29C104.61 9.66 104.81 10.29 104.92 10.7C105.02 11.1 105.16 11.72 105.22 12.07C105.28 12.45 105.34 13.3 105.36 14.15C105.39 15.24 105.37 15.82 105.29 16.53C105.23 17.05 105.1 17.83 105.01 18.28C104.92 18.72 104.73 19.44 104.61 19.87C104.48 20.3 104.25 20.95 104.11 21.31C103.96 21.67 103.72 22.24 103.56 22.57C103.41 22.9 103.12 23.45 102.93 23.78C102.74 24.11 102.38 24.68 102.14 25.05C101.89 25.42 101.43 26.04 101.12 26.43C100.81 26.81 100.16 27.53 99.67 28.01C99.19 28.49 98.47 29.14 98.08 29.44C97.69 29.75 97 30.24 96.56 30.53C96.11 30.82 95.27 31.3 94.7 31.58C94.12 31.87 93.26 32.24 92.79 32.42C92.31 32.59 91.52 32.84 91.03 32.96C90.53 33.09 89.78 33.26 89.35 33.33C88.93 33.41 88.26 33.5 87.87 33.54C87.47 33.57 86.59 33.6 85.9 33.6C85.21 33.6 84.26 33.56 83.77 33.5C83.29 33.45 82.59 33.34 82.22 33.26C81.85 33.19 81.23 33.04 80.85 32.93C80.47 32.82 79.87 32.62 79.53 32.49C79.18 32.35 78.57 32.08 78.16 31.87C77.75 31.67 77.22 31.38 76.98 31.23C76.73 31.09 76.25 30.75 75.89 30.49C75.54 30.23 74.9 29.67 74.47 29.24C74.04 28.82 73.48 28.19 73.21 27.84C72.95 27.48 72.6 26.99 72.44 26.73C72.28 26.47 71.97 25.9 71.76 25.45C71.55 25.01 71.25 24.28 71.1 23.83C70.94 23.38 70.75 22.64 70.65 22.18C70.56 21.73 70.46 21.05 70.42 20.66C70.38 20.27 70.35 19.53 70.35 19.02C70.35 18.5 70.38 17.74 70.42 17.34C70.46 16.93 70.56 16.21 70.65 15.73C70.74 15.25 70.92 14.49 71.05 14.05C71.17 13.61 71.39 12.95 71.53 12.58C71.66 12.21 72.03 11.39 72.34 10.77C72.65 10.14 73.11 9.31 73.36 8.92C73.61 8.53 74.02 7.94 74.28 7.61C74.54 7.28 75.01 6.71 75.34 6.34C75.66 5.98 76.26 5.38 76.67 5.01C77.08 4.64 77.75 4.09 78.16 3.79C78.57 3.48 79.24 3.03 79.65 2.78C80.06 2.54 80.79 2.14 81.27 1.91C81.75 1.68 82.44 1.38 82.79 1.25C83.15 1.12 83.78 0.91 84.21 0.78C84.64 0.66 85.31 0.48 85.7 0.4C86.09 0.32 86.81 0.2 87.29 0.14C87.91 0.05 88.62 0.01 89.73 0.01ZM86.92 8.34C86.56 8.43 86 8.62 85.67 8.76C85.33 8.91 84.74 9.23 84.35 9.48C83.86 9.8 83.4 10.19 82.86 10.73C82.31 11.27 81.92 11.73 81.56 12.27C81.27 12.7 80.89 13.36 80.7 13.75C80.52 14.14 80.28 14.73 80.17 15.06C80.05 15.39 79.9 15.96 79.82 16.33C79.73 16.73 79.66 17.39 79.64 17.98C79.61 18.72 79.62 19.13 79.71 19.72C79.78 20.14 79.91 20.75 80.02 21.06C80.12 21.37 80.27 21.77 80.36 21.93C80.44 22.1 80.64 22.43 80.79 22.67C80.95 22.91 81.25 23.29 81.45 23.51C81.66 23.73 82.05 24.07 82.33 24.26C82.6 24.44 83.01 24.69 83.23 24.8C83.46 24.91 83.88 25.08 84.18 25.17C84.48 25.26 84.95 25.38 85.23 25.43C85.51 25.47 86.16 25.51 86.68 25.51C87.2 25.52 87.86 25.48 88.14 25.43C88.41 25.38 88.93 25.25 89.29 25.14C89.64 25.03 90.17 24.81 90.47 24.67C90.77 24.52 91.22 24.25 91.48 24.08C91.74 23.91 92.17 23.59 92.43 23.37C92.68 23.15 93.11 22.73 93.36 22.44C93.62 22.14 94.01 21.63 94.24 21.3C94.46 20.96 94.79 20.39 94.97 20.02C95.15 19.65 95.4 19.05 95.53 18.68C95.66 18.31 95.83 17.69 95.91 17.3C96.01 16.84 96.08 16.26 96.1 15.59C96.12 14.97 96.1 14.36 96.05 13.98C96 13.65 95.89 13.12 95.8 12.81C95.71 12.5 95.54 12.03 95.42 11.77C95.3 11.51 95.03 11.06 94.83 10.77C94.63 10.48 94.28 10.07 94.05 9.87C93.83 9.66 93.46 9.37 93.24 9.23C93.02 9.08 92.62 8.86 92.36 8.74C92.1 8.62 91.6 8.45 91.25 8.36C90.89 8.26 90.29 8.16 89.89 8.12C89.5 8.08 89.06 8.05 88.91 8.06C88.76 8.06 88.4 8.09 88.1 8.12C87.8 8.15 87.27 8.25 86.92 8.34ZM25.28 0.61C34.18 0.61 38.69 0.63 38.69 0.67C38.69 0.71 38.4 1.82 38.04 3.14C37.68 4.45 37.32 5.73 37.23 5.97C37.13 6.21 36.92 6.64 36.74 6.93C36.57 7.22 36.2 7.7 35.92 8C35.64 8.3 35.23 8.67 35 8.82C34.78 8.98 34.4 9.2 34.16 9.32C33.92 9.44 33.49 9.6 33.21 9.67C32.72 9.79 32.26 9.79 21.32 9.79C13.56 9.79 9.73 9.82 9.28 9.87C8.92 9.91 8.34 10.01 7.98 10.1C7.63 10.19 7.06 10.4 6.71 10.57C6.24 10.79 6.07 10.85 6.03 10.78C5.99 10.73 6.26 9.64 6.73 7.91C7.14 6.38 7.58 4.84 7.7 4.49C7.82 4.14 8.05 3.59 8.22 3.25C8.39 2.92 8.66 2.49 8.81 2.29C8.97 2.09 9.25 1.79 9.44 1.63C9.62 1.46 10.02 1.21 10.32 1.07C10.61 0.93 11.02 0.78 11.23 0.74C11.43 0.7 11.66 0.66 11.74 0.65C11.81 0.63 17.91 0.62 25.28 0.61ZM42.65 0.6L50.16 0.62C57.35 0.65 57.7 0.65 58.64 0.79C59.18 0.86 59.93 0.99 60.3 1.07C60.67 1.15 61.25 1.29 61.59 1.38C61.92 1.48 62.42 1.65 62.7 1.76C62.98 1.87 63.55 2.13 63.95 2.34C64.36 2.54 64.94 2.89 65.24 3.11C65.54 3.33 66.01 3.74 66.29 4.02C66.57 4.31 66.96 4.78 67.16 5.07C67.37 5.36 67.68 5.9 67.85 6.27C68.03 6.64 68.25 7.2 68.34 7.51C68.43 7.83 68.55 8.37 68.61 8.72C68.67 9.07 68.74 9.67 68.76 10.06C68.79 10.46 68.77 11.15 68.73 11.64C68.68 12.12 68.59 12.81 68.51 13.18C68.43 13.55 68.26 14.15 68.14 14.52C68.01 14.89 67.75 15.49 67.56 15.86C67.38 16.23 67.02 16.82 66.77 17.17C66.53 17.52 66.02 18.11 65.65 18.48C65.27 18.85 64.73 19.33 64.43 19.55C64.13 19.77 63.61 20.12 63.28 20.32C62.94 20.52 62.29 20.86 61.82 21.07C61.36 21.28 60.54 21.6 60 21.78C59.46 21.95 59.01 22.1 59 22.1C58.99 22.1 60.11 24.55 61.49 27.53C62.86 30.52 63.99 32.97 63.99 32.98C63.99 32.99 61.74 33 54.01 33.01L53.62 32.15C53.41 31.68 52.43 29.48 49.67 23.24L47.67 23.22C46.56 23.21 45.66 23.22 45.66 23.24C45.66 23.26 45.08 25.41 44.37 28.02C43.66 30.63 43.07 32.82 43.05 32.88C43.02 32.99 42.74 33 38.45 33C34.83 33 33.89 32.98 33.91 32.92C33.92 32.87 35.9 25.58 38.29 16.72L42.65 0.6ZM48.64 12.19C48.06 14.28 47.58 16.04 47.56 16.09C47.52 16.17 48.01 16.18 50.73 16.15C52.73 16.13 54.14 16.08 54.45 16.03C54.73 15.99 55.25 15.88 55.6 15.78C55.95 15.69 56.46 15.52 56.72 15.4C56.98 15.28 57.37 15.06 57.6 14.91C57.82 14.76 58.18 14.45 58.4 14.21C58.62 13.98 58.89 13.61 58.99 13.4C59.1 13.19 59.23 12.84 59.29 12.63C59.34 12.41 59.39 12 59.39 11.7C59.39 11.41 59.35 11.03 59.31 10.87C59.28 10.7 59.16 10.4 59.06 10.2C58.96 10 58.74 9.69 58.58 9.52C58.4 9.34 58.06 9.11 57.77 8.96C57.49 8.83 56.97 8.65 56.62 8.57C56.03 8.44 55.71 8.43 52.83 8.4L49.68 8.37L48.64 12.19ZM113.39 0.6L121.9 0.64L126.06 9.52C128.35 14.41 130.24 18.43 130.27 18.46C130.29 18.49 131.41 14.48 135.18 0.6L139.69 0.6C143.96 0.6 144.21 0.61 144.19 0.72C144.17 0.79 142.2 8.08 135.45 33L127.47 32.99L123.11 23.74C120.71 18.65 118.73 14.49 118.71 14.49C118.69 14.49 117.55 18.65 113.67 33L109.16 33C105.58 33 104.64 32.98 104.66 32.92C104.67 32.87 106.64 25.58 109.04 16.72L113.39 0.6ZM148.15 0.6L162.48 0.6C173.92 0.6 176.81 0.62 176.78 0.69C176.76 0.73 176.29 2.49 175.73 4.59C175.17 6.7 174.69 8.44 174.68 8.47C174.66 8.5 172.45 8.52 164.87 8.52L161.6 20.68C159.8 27.36 158.31 32.87 158.3 32.92C158.28 32.98 157.31 33 153.71 33C149.4 33 149.15 32.99 149.18 32.88C149.2 32.82 150.69 27.32 152.49 20.68C154.3 14.03 155.78 8.57 155.78 8.55C155.78 8.53 153.58 8.52 150.91 8.52C148.23 8.52 146.04 8.5 146.03 8.47C146.03 8.44 146.51 6.66 147.09 4.51L148.15 0.6ZM185.27 0.6C189.55 0.6 189.8 0.61 189.78 0.72C189.76 0.79 187.79 8.08 181.04 33L171.94 33L172.04 32.68C172.09 32.51 174.06 25.25 176.41 16.57C178.75 7.88 180.69 0.73 180.7 0.69C180.73 0.62 181.7 0.6 185.27 0.6ZM193.75 0.6L219.97 0.6L219.9 0.82C219.87 0.94 219.39 2.65 218.85 4.61C218.31 6.58 217.87 8.2 217.87 8.22C217.87 8.23 214.01 8.25 200.69 8.25L200.59 8.6C200.54 8.8 200.25 9.84 199.95 10.93C199.65 12.02 199.39 12.96 199.37 13.03C199.34 13.14 199.74 13.15 214.89 13.15L214.86 13.33C214.84 13.43 214.45 14.87 214.01 16.53C213.56 18.19 213.15 19.71 213 20.26L197.41 20.26L196.74 22.72C196.37 24.08 196.06 25.22 196.05 25.27C196.03 25.34 197.8 25.35 204.75 25.35C211.7 25.35 213.47 25.37 213.45 25.44C213.44 25.48 212.97 27.2 211.41 33L198.2 33C185.66 33 185 32.99 185.02 32.88C185.03 32.82 187 25.53 189.39 16.68L193.75 0.6ZM223.89 0.6L230.88 0.6C234.94 0.6 238.2 0.63 238.67 0.67C239.12 0.71 239.82 0.79 240.23 0.84C240.64 0.9 241.32 1.02 241.75 1.11C242.18 1.21 242.89 1.4 243.34 1.55C243.78 1.7 244.48 1.98 244.89 2.18C245.3 2.38 245.88 2.7 246.17 2.9C246.47 3.09 246.97 3.49 247.28 3.79C247.6 4.08 248.04 4.57 248.26 4.86C248.48 5.16 248.81 5.69 248.98 6.04C249.16 6.39 249.39 6.92 249.48 7.21C249.58 7.51 249.73 8.03 249.8 8.38C249.9 8.84 249.95 9.37 249.98 10.26C250.01 11.22 249.99 11.69 249.9 12.31C249.84 12.75 249.72 13.38 249.63 13.72C249.55 14.05 249.36 14.61 249.22 14.96C249.09 15.31 248.81 15.88 248.61 16.23C248.42 16.58 248.04 17.14 247.78 17.47C247.53 17.8 247.04 18.33 246.71 18.65C246.38 18.96 245.93 19.36 245.7 19.53C245.48 19.7 245.06 19.99 244.76 20.17C244.46 20.36 243.91 20.66 243.54 20.84C243.17 21.03 242.59 21.28 242.26 21.42C241.92 21.55 241.33 21.76 240.95 21.88C240.42 22.05 240.26 22.13 240.28 22.2C240.3 22.26 241.4 24.66 242.73 27.53C244.06 30.41 245.17 32.82 245.2 32.88C245.26 32.99 245 33 235.22 33L230.89 23.2L226.91 23.24L224.26 33L219.71 33C216.73 33 215.17 32.98 215.17 32.93C215.17 32.9 217.1 25.72 219.46 16.99C221.83 8.25 223.79 0.99 223.83 0.86L223.89 0.6ZM230.83 8.74C230.78 8.93 230.3 10.65 229.76 12.55C229.23 14.45 228.8 16.04 228.81 16.09C228.82 16.15 229.64 16.16 232.06 16.14C234.49 16.12 235.42 16.08 235.83 16.01C236.13 15.96 236.61 15.85 236.89 15.77C237.18 15.69 237.61 15.55 237.84 15.45C238.07 15.36 238.51 15.12 238.81 14.93C239.1 14.73 239.49 14.41 239.67 14.21C239.85 14.01 240.1 13.64 240.23 13.38C240.36 13.12 240.51 12.7 240.56 12.44C240.62 12.18 240.66 11.85 240.66 11.7C240.67 11.56 240.63 11.25 240.59 11.03C240.55 10.81 240.45 10.48 240.36 10.3C240.27 10.11 240.07 9.81 239.9 9.63C239.73 9.44 239.44 9.19 239.24 9.08C239.04 8.96 238.61 8.79 238.3 8.7C237.98 8.61 237.41 8.5 237.03 8.46C236.64 8.42 235.16 8.38 233.63 8.38L230.93 8.38L230.83 8.74ZM21.53 12.22C28.59 12.21 34.37 12.23 34.39 12.26C34.4 12.29 34.19 13.12 33.92 14.12C33.64 15.11 33.34 16.16 33.24 16.43C33.14 16.71 32.91 17.24 32.72 17.61C32.53 17.98 32.26 18.46 32.11 18.68C31.96 18.9 31.6 19.32 31.32 19.61C31.04 19.9 30.63 20.27 30.4 20.43C30.18 20.59 29.8 20.81 29.56 20.92C29.32 21.03 28.94 21.17 28.71 21.24C28.33 21.35 27.66 21.36 17.18 21.4C6.16 21.44 6.05 21.44 5.41 21.58C5.06 21.66 4.54 21.8 4.26 21.9C3.98 21.99 3.57 22.16 3.35 22.27C3.13 22.39 2.92 22.45 2.89 22.42C2.85 22.39 3.14 21.22 3.52 19.82C3.89 18.42 4.32 16.91 4.47 16.47C4.62 16.02 4.9 15.33 5.1 14.92C5.3 14.52 5.61 14 5.79 13.78C5.97 13.55 6.26 13.25 6.43 13.11C6.59 12.98 6.9 12.78 7.1 12.68C7.31 12.57 7.66 12.44 7.88 12.39C8.1 12.33 8.38 12.27 8.49 12.26C8.6 12.24 14.47 12.22 21.53 12.22ZM11.75 23.82C17.52 23.81 17.86 23.82 17.86 23.93C17.86 23.99 17.61 24.94 17.32 26.02C17.02 27.11 16.7 28.23 16.6 28.51C16.5 28.78 16.3 29.25 16.15 29.55C16 29.84 15.72 30.31 15.53 30.58C15.34 30.85 14.96 31.29 14.68 31.54C14.4 31.8 13.97 32.12 13.73 32.26C13.49 32.4 13 32.62 12.01 32.97L6 32.98C0.7 33 0 32.99 0 32.9C0 32.84 0.27 31.8 0.61 30.57C0.94 29.34 1.3 28.08 1.41 27.77C1.52 27.45 1.71 26.97 1.84 26.7C1.97 26.42 2.19 26.01 2.34 25.79C2.49 25.57 2.77 25.24 2.95 25.06C3.13 24.87 3.45 24.62 3.65 24.49C3.86 24.35 4.24 24.18 4.5 24.09C4.76 24.01 5.12 23.91 5.31 23.88C5.5 23.85 8.4 23.82 11.75 23.82Z" />
		<path fill-rule="evenodd" class="shp1" d="M240.78 41.59C241.13 41.59 241.71 41.62 242.07 41.66C242.43 41.7 243.02 41.81 243.37 41.9C243.72 41.99 244.33 42.21 244.72 42.4C245.11 42.58 245.61 42.86 245.83 43.02C246.04 43.17 246.22 43.32 246.21 43.35C246.21 43.37 245.82 43.95 245.33 44.64C244.85 45.32 244.42 45.88 244.39 45.88C244.35 45.88 244.11 45.75 243.86 45.6C243.61 45.45 243.19 45.23 242.93 45.12C242.67 45.01 242.23 44.86 241.95 44.79C241.67 44.72 241.19 44.66 240.87 44.65C240.41 44.65 240.23 44.68 239.97 44.79C239.76 44.89 239.62 45.01 239.54 45.16C239.47 45.3 239.45 45.45 239.47 45.59C239.5 45.72 239.61 45.89 239.74 46C239.86 46.1 240.15 46.25 240.4 46.33C240.64 46.41 241.35 46.6 241.98 46.75C242.62 46.91 243.35 47.11 243.61 47.2C243.87 47.29 244.32 47.49 244.62 47.65C244.98 47.83 245.32 48.07 245.61 48.36C245.86 48.6 246.12 48.92 246.2 49.08C246.28 49.24 246.39 49.54 246.45 49.75C246.51 49.97 246.55 50.43 246.55 50.81C246.55 51.19 246.51 51.65 246.45 51.88C246.39 52.1 246.25 52.48 246.13 52.72C245.99 52.99 245.74 53.32 245.47 53.59C245.22 53.83 244.86 54.13 244.65 54.25C244.45 54.36 244.06 54.54 243.78 54.64C243.5 54.73 243.05 54.86 242.78 54.91C242.5 54.96 241.86 55 241.27 55C240.72 55 240.02 54.97 239.74 54.93C239.45 54.89 238.93 54.78 238.59 54.69C238.24 54.6 237.68 54.41 237.33 54.26C236.99 54.11 236.47 53.84 236.17 53.65C235.87 53.46 235.5 53.21 235.09 52.87L236.1 51.68C236.66 51.02 237.14 50.48 237.17 50.46C237.19 50.45 237.41 50.58 237.64 50.75C237.87 50.92 238.3 51.17 238.6 51.31C238.9 51.45 239.3 51.62 239.48 51.68C239.67 51.74 240.04 51.83 240.31 51.89C240.58 51.94 241.04 51.98 241.33 51.98C241.61 51.98 241.96 51.95 242.1 51.91C242.24 51.88 242.46 51.76 242.59 51.65C242.79 51.48 242.83 51.4 242.83 51.16C242.83 50.98 242.79 50.81 242.71 50.71C242.64 50.62 242.4 50.46 242.18 50.36C241.96 50.26 241.28 50.06 240.67 49.9C240.05 49.75 239.26 49.54 238.91 49.42C238.55 49.31 238.07 49.11 237.82 49C237.58 48.88 237.23 48.66 237.04 48.52C236.85 48.38 236.6 48.15 236.49 48.02C236.37 47.9 236.19 47.59 236.07 47.35C235.96 47.11 235.83 46.71 235.79 46.45C235.75 46.17 235.74 45.76 235.76 45.44C235.79 45.15 235.87 44.72 235.94 44.5C236.01 44.28 236.15 43.95 236.26 43.77C236.37 43.58 236.59 43.28 236.75 43.1C236.91 42.92 237.23 42.65 237.45 42.5C237.68 42.35 238.01 42.16 238.2 42.08C238.38 42 238.73 41.88 238.97 41.82C239.22 41.76 239.58 41.68 239.79 41.66C239.99 41.63 240.44 41.6 240.78 41.59ZM152.01 41.72L155.58 41.75L158.34 48.23C159.86 51.79 161.09 54.72 161.08 54.75C161.06 54.78 160.18 54.8 157.16 54.8L156.22 52.51L151.24 52.52L150.33 54.8L146.51 54.8L146.54 54.65C146.56 54.56 147.8 51.62 149.29 48.11L152.01 41.72ZM152.39 49.58C152.39 49.61 153.02 49.63 153.78 49.63L155.17 49.63C154.12 47.01 153.81 46.22 153.79 46.18C153.78 46.14 153.46 46.88 153.08 47.82C152.7 48.76 152.39 49.56 152.39 49.58ZM163.76 41.79L167.48 41.79L167.48 54.8L163.76 54.8L163.76 41.79ZM171.2 41.79L174.36 41.79C176.12 41.79 177.87 41.82 178.3 41.86C178.73 41.9 179.34 42.01 179.65 42.1C179.97 42.19 180.44 42.38 180.7 42.51C181 42.67 181.35 42.93 181.65 43.23C181.95 43.53 182.2 43.86 182.34 44.13C182.46 44.37 182.61 44.77 182.68 45.01C182.76 45.32 182.79 45.7 182.79 46.31C182.79 47.07 182.76 47.26 182.61 47.72C182.51 48.02 182.32 48.44 182.17 48.66C182.03 48.88 181.73 49.23 181.51 49.43C181.29 49.64 180.9 49.91 180.65 50.04C180.4 50.17 180.2 50.29 180.2 50.3C180.2 50.32 180.88 51.32 181.71 52.52C182.54 53.72 183.21 54.72 183.2 54.75C183.18 54.78 182.24 54.8 179.01 54.8L176.37 50.9L174.85 50.91L174.85 54.8L171.2 54.8L171.2 41.79ZM174.85 48.02C177.8 47.99 177.88 47.98 178.23 47.82C178.43 47.73 178.67 47.56 178.77 47.45C178.87 47.34 178.99 47.13 179.04 46.98C179.09 46.84 179.12 46.57 179.1 46.38C179.08 46.2 179.01 45.93 178.94 45.78C178.86 45.62 178.69 45.44 178.5 45.33C178.34 45.22 178.09 45.11 177.96 45.07C177.83 45.04 177.08 45.01 176.29 45.01L174.85 45.01L174.85 48.02ZM185.94 41.79L189.66 41.79L189.66 51.58L195.96 51.58L195.96 54.8L185.94 54.8L185.94 41.79ZM198.93 41.79L202.58 41.79L202.58 54.8L198.93 54.8L198.93 41.79ZM206.3 41.79L209.72 41.79L215 48.51L215.03 41.79L218.68 41.79L218.68 54.8L215.41 54.77L209.99 47.86L209.96 54.8L206.3 54.8L206.3 41.79ZM222.33 41.79L232.89 41.79L232.89 44.94L225.92 44.94L225.92 46.82L232.21 46.82L232.21 49.7L225.92 49.7L225.92 51.71L232.95 51.71L232.95 54.8L222.33 54.8L222.33 41.79Z" />
	</g>
</svg>