<?xml version="1.0" encoding="UTF-8" standalone="no"?>
<svg
   xmlns:dc="http://purl.org/dc/elements/1.1/"
   xmlns:cc="http://creativecommons.org/ns#"
   xmlns:rdf="http://www.w3.org/1999/02/22-rdf-syntax-ns#"
   xmlns:svg="http://www.w3.org/2000/svg"
   xmlns="http://www.w3.org/2000/svg"
   xmlns:sodipodi="http://sodipodi.sourceforge.net/DTD/sodipodi-0.dtd"
   xmlns:inkscape="http://www.inkscape.org/namespaces/inkscape"
   inkscape:version="1.0 (4035a4fb49, 2020-05-01)"
   sodipodi:docname="United_Airlines_Logo.svg"
   viewBox="0 0 1198.512 217.16798"
   height="88.028809"
   width="485.81552"
   xml:space="preserve"
   id="svg2"
   version="1.1"><metadata
     id="metadata8"><rdf:RDF><cc:Work
         rdf:about=""><dc:format>image/svg+xml</dc:format><dc:type
           rdf:resource="http://purl.org/dc/dcmitype/StillImage" /><dc:title /></cc:Work></rdf:RDF></metadata><defs
     id="defs6"><clipPath
       id="clipPath18"
       clipPathUnits="userSpaceOnUse"><path
         inkscape:connector-curvature="0"
         id="path16"
         d="M 0,325.476 H 1051.831 V 0 H 0 Z" /></clipPath></defs><sodipodi:namedview
     inkscape:document-rotation="0"
     inkscape:current-layer="g10"
     inkscape:window-maximized="1"
     inkscape:window-y="-8"
     inkscape:window-x="-8"
     inkscape:cy="-70.450347"
     inkscape:cx="272.56393"
     inkscape:zoom="2"
     showgrid="false"
     id="namedview4"
     inkscape:window-height="1017"
     inkscape:window-width="1920"
     inkscape:pageshadow="2"
     inkscape:pageopacity="0"
     guidetolerance="10"
     gridtolerance="10"
     objecttolerance="10"
     borderopacity="1"
     bordercolor="#666666"
     pagecolor="#ffffff" /><g
     transform="matrix(1.3333333,0,0,-1.3333333,-114.61333,325.56813)"
     inkscape:label="united_4.5p_h_rgb_r"
     inkscape:groupmode="layer"
     id="g10"><g
       id="g12"><g
         clip-path="url(#clipPath18)"
         id="g14"><g
           transform="translate(978.115,94.8252)"
           id="g20"><path
             inkscape:connector-curvature="0"
             id="path22"
             style="fill:#0033a0;fill-opacity:1;fill-rule:nonzero;stroke:none"
             d="m 0,0 c -3.76,0 -6.732,-2.983 -6.732,-6.719 0,-3.738 2.972,-6.715 6.732,-6.715 3.75,0 6.729,2.977 6.729,6.715 C 6.729,-2.983 3.75,0 0,0 m 0,-12.406 c -3.08,0 -5.711,2.516 -5.711,5.687 0,3.175 2.631,5.678 5.711,5.678 3.072,0 5.693,-2.503 5.693,-5.678 0,-3.171 -2.621,-5.687 -5.693,-5.687" /></g><g
           transform="translate(981.4067,89.8867)"
           id="g24"><path
             inkscape:connector-curvature="0"
             id="path26"
             style="fill:#0033a0;fill-opacity:1;fill-rule:nonzero;stroke:none"
             d="m 0,0 c 0,1.582 -1.281,1.942 -2.617,1.942 h -3.191 v -7.348 h 1.03 v 3.394 h 1.248 l 2.19,-3.394 h 1.241 l -2.214,3.394 C -1.007,-1.974 0,-1.451 0,0 m -3.53,-0.99 h -1.248 v 1.894 h 1.958 c 0.8,0 1.791,-0.133 1.791,-0.885 0,-1.171 -1.609,-1.009 -2.501,-1.009" /></g><g
           transform="translate(934.9999,81.3001)"
           id="g28"><path
             inkscape:connector-curvature="0"
             id="path30"
             style="fill:#0033a0;fill-opacity:1;fill-rule:nonzero;stroke:none"
             d="M 0,0 C 1.312,3.561 2.497,7.363 3.471,11.228 5.362,19.072 6.34,27.196 6.34,35.472 6.34,40.249 6.009,44.975 5.372,49.626 4.903,42.849 3.721,36.91 3.721,36.91 3.999,36.015 4.491,34.545 4.72,33.638 L 4.719,33.634 C 3.987,26.639 2.666,19.843 0.816,13.307 -0.074,16.59 -1.269,19.75 -1.346,19.954 -1.348,19.958 -1.349,19.962 -1.35,19.965 -3.748,13.575 -7.332,6.051 -10.587,0 Z" /></g><g
           transform="translate(912.804,81.3001)"
           id="g32"><path
             inkscape:connector-curvature="0"
             id="path34"
             style="fill:#0033a0;fill-opacity:1;fill-rule:nonzero;stroke:none"
             d="m 0,0 h 6.12 c 17.422,25.735 18.298,48.543 18.298,52.913 0,8.255 -1.387,15.84 -3.705,21.846 0,0 -3.616,9.334 -9.245,17.64 0.615,-1.856 1.795,-5.619 2.448,-8.98 0.043,-0.224 0.078,-0.422 0.109,-0.605 1.109,-1.849 6.111,-10.668 6.78,-20.366 0.001,-0.017 0.002,-0.029 0.002,-0.029 0,0 -3.534,4.95 -6.155,8.078 -0.094,-5.331 -0.786,-10.665 -1.902,-15.817 0,0 5.236,-6.064 7.579,-9.975 0,0 -1.593,-8.53 -5.009,-16.704 -3.475,5.054 -7.914,9.963 -7.914,9.963 -2.597,-6.42 -5.886,-12.88 -9.538,-18.854 0,0 6.635,-7.764 8.091,-9.978 C 4.01,5.852 2.11,2.996 0,0" /></g><g
           transform="translate(890.9969,81.3001)"
           id="g36"><path
             inkscape:connector-curvature="0"
             id="path38"
             style="fill:#0033a0;fill-opacity:1;fill-rule:nonzero;stroke:none"
             d="m 0,0 c 11.562,12.931 21.414,28.142 27.332,44.429 5.135,14.13 7.931,31.388 3.384,46.738 -0.305,1.013 -0.647,2.034 -1.046,3.061 -1.453,3.754 -3.338,7.028 -5.389,9.6 -5.529,6.18 -11.79,11.687 -18.652,16.375 1.009,-1.3 1.93,-2.639 2.728,-3.997 0,0 8.354,-6.197 13.204,-12.493 -6.222,4.432 -9.744,6.226 -10.201,6.453 -0.017,0.008 -0.036,0.016 -0.052,0.025 2.363,-5.825 3.074,-10.649 3.075,-10.657 0,0 7.382,-3.852 14.028,-9.607 0.92,-4.255 1.3,-8.615 1.238,-12.98 -6.698,5.893 -14.45,10.495 -14.45,10.495 -0.142,-4.99 -0.832,-10.044 -1.929,-14.957 0,0 7.32,-4.635 14.453,-11.133 0,0 -2.048,-9.208 -5.353,-16.449 -6.844,6.371 -13.517,11.329 -14.043,11.717 0,0 -3.398,-8.86 -8.901,-17.752 C 6.278,32.907 12.718,26.728 12.718,26.728 8.784,20.59 4.332,14.746 -0.47,9.282 L -0.472,9.277 -12.729,21.482 C -17.709,15.32 -23.169,9.514 -28.967,4.17 -28.692,3.86 -26.221,1.121 -25.21,0 Z" /></g><g
           transform="translate(894.1418,200.1403)"
           id="g40"><path
             inkscape:connector-curvature="0"
             id="path42"
             style="fill:#0033a0;fill-opacity:1;fill-rule:nonzero;stroke:none"
             d="m 0,0 c -0.793,1.084 -1.69,2.189 -2.719,3.173 -0.902,0.861 -1.782,1.638 -2.708,2.336 -10.199,7.689 -28.968,11.534 -28.968,11.534 1.791,-0.955 3.282,-1.934 3.291,-1.941 0.09,-0.022 7.657,-1.919 14.369,-5.202 0,0 -6.106,1.387 -10.022,1.927 1.619,-1.422 3.157,-3.059 4.505,-4.769 0,0 12.454,-2.272 17.922,-5.27 0,0 2.617,-2.693 4.757,-7.417 -8.536,3.465 -18.202,5.272 -18.202,5.272 1.283,-2.875 2.202,-5.954 2.765,-9.158 0,0 10.627,-2.601 18.613,-6.435 0.69,-3.792 0.943,-7.712 0.797,-11.678 -9.432,4.729 -18.794,7.699 -18.794,7.699 -0.189,-4.088 -0.846,-8.325 -1.95,-12.653 0,0 12.877,-5.751 18.664,-9.242 -1.278,-5.112 -3.072,-10.119 -5.228,-14.94 -8.813,5.726 -18.142,10.818 -18.142,10.818 -2.343,-5.627 -8.107,-14.843 -8.107,-14.843 l 0.001,-10e-4 v 10e-4 l 0.005,-0.004 c 0.145,-0.1 9.738,-6.685 17.097,-12.529 -3.656,-5.54 -7.778,-10.861 -12.264,-15.919 -1.548,1.48 -15.69,14.034 -15.69,14.034 -4.268,-4.949 -9.021,-9.77 -14.224,-14.385 0,0 10e-4,-0.002 0.003,-0.003 l 13.632,-15.429 c 0.002,-0.001 0.003,-0.001 0.004,-0.002 l -10e-4,-0.002 c -8.843,-7.281 -17.658,-12.798 -17.658,-12.798 l -11.376,16.149 c 0,0 -8.004,-6.089 -21.514,-12.483 v -4.68 h 44.365 C 2.743,-81.373 20.316,-27.798 0,0" /></g><g
           transform="translate(869.024,205.762)"
           id="g44"><path
             inkscape:connector-curvature="0"
             id="path46"
             style="fill:#0033a0;fill-opacity:1;fill-rule:nonzero;stroke:none"
             d="m 0,0 c -12.3,16.554 -31.551,14.189 -37.292,13.386 -6.306,-0.884 -11.073,-2.264 -11.073,-2.264 1.409,-0.132 3.327,-0.384 4.711,-0.659 1.021,0.24 9.872,2.258 16.305,1.415 0.01,0 0.019,-10e-4 0.019,-10e-4 -4.728,-0.513 -11.178,-2.463 -11.851,-2.669 -0.007,-0.002 -0.009,-0.006 -0.016,-0.009 0.007,-0.003 0.013,-0.006 0.02,-0.008 0.232,-0.068 2.091,-0.632 4.476,-2.031 0.697,0.187 9.455,2.51 17.807,2.674 V 9.832 c 0,0 3.086,-1.369 6.06,-3.41 -10.792,0.041 -19.726,-2.031 -19.968,-2.088 1.264,-1.121 2.521,-2.47 3.65,-4.091 11.83,1.772 22.038,1.004 22.038,1.004 0,0 1.388,-1.693 2.012,-2.603 0.788,-1.146 1.594,-2.57 2.219,-3.821 -12.074,1.412 -23.623,0.402 -23.631,0.402 0.797,-2.056 1.336,-4.255 1.631,-6.567 1.335,0.01 11.561,-0.009 24.586,-2.354 0.416,-2.986 0.458,-6.185 0.13,-9.561 -2.214,0.576 -12.908,3.247 -24.576,4.405 -0.235,-2.916 -0.79,-5.952 -1.643,-9.065 1.306,-0.308 15.722,-3.744 23.797,-7.015 -0.156,-0.507 -0.32,-1.016 -0.49,-1.528 -1.156,-3.467 -2.601,-6.948 -4.311,-10.418 -6.502,3.201 -22.446,9.434 -22.446,9.434 -1.594,-3.566 -3.543,-7.176 -5.821,-10.779 0,0 13.67,-7.801 20.254,-12.12 -3.04,-4.343 -6.473,-8.607 -10.259,-12.728 -4.774,4.283 -16.717,13.537 -17.619,14.235 -3.852,-4.586 -8.703,-9.409 -10.156,-10.835 l 14.332,-16.434 c -0.132,-0.119 -0.27,-0.24 -0.41,-0.362 -3.102,-2.571 -6.443,-4.991 -9.267,-6.931 -2.451,-1.665 -4.474,-2.955 -5.173,-3.405 -0.166,0.253 -9.55,15.236 -10.96,17.62 -1.031,-0.764 -2.07,-1.495 -3.109,-2.213 v -30.801 c 1.686,0.813 3.376,1.655 5.061,2.55 8.08,3.979 15.922,9.028 23.22,14.861 4.677,3.714 9.583,8.071 14.426,13.101 5.754,5.902 10.751,12.085 14.922,18.35 C 7.413,-40.003 11.647,-15.676 0,0" /></g><g
           transform="translate(837.1183,207.0095)"
           id="g48"><path
             inkscape:connector-curvature="0"
             id="path50"
             style="fill:#0033a0;fill-opacity:1;fill-rule:nonzero;stroke:none"
             d="M 0,0 C -5.858,6.722 -15.606,9.024 -26.933,7.405 -27.241,7.359 -27.562,7.316 -27.851,7.267 -28.715,7.121 -29.59,6.945 -30.472,6.75 -32.221,6.344 -33.419,5.944 -34.119,5.673 v -3.39 c 1.116,0.879 2.254,1.716 3.427,2.502 2.257,0.483 4.45,0.791 6.564,0.929 -3.271,-1.867 -7.046,-4.399 -9.991,-6.738 v -2.609 l 0.102,-0.06 c 0,0 8.302,6.571 14.898,9.403 1.59,-0.115 3.113,-0.337 4.564,-0.67 -9.856,-4.181 -17.133,-9.367 -17.637,-9.731 1.011,-0.599 1.934,-1.35 2.055,-1.449 0.127,0.08 9.683,6.056 20.199,9.638 1.427,-0.652 2.806,-1.464 3.998,-2.383 -11.45,-3.218 -22.458,-8.964 -22.458,-8.964 0.62,-0.722 1.167,-1.502 1.639,-2.337 0.074,0.03 0.143,0.057 0.196,0.078 11.72,5.016 24.174,7.588 24.174,7.588 0.974,-1.334 1.776,-2.824 2.389,-4.466 0,0 -11.176,-1.278 -25.554,-5.889 0.635,-1.987 0.809,-3.48 0.81,-3.494 0,0 13.554,3.032 26.054,3.368 0.174,-2.008 0.112,-4.262 -0.176,-6.574 -7.403,0.39 -25.036,-0.548 -25.729,-0.602 0,0 -0.064,-2.541 -0.724,-4.931 0,0 12.884,-0.413 24.604,-2.599 -0.906,-2.806 -2.063,-5.574 -3.435,-8.276 -7.811,2.346 -19.664,5.195 -22.783,5.911 -0.821,-2.021 -1.852,-4.027 -3.075,-5.969 0,0 14.483,-6.321 20.041,-9.412 h 0.012 l -0.003,-0.006 c -2.412,-3.612 -7.194,-8.668 -7.194,-8.668 -1.387,1.038 -2.699,2.007 -3.936,2.914 -3.841,2.687 -9.539,6.677 -13.002,9.088 -0.017,0.011 -0.018,0.012 -0.029,0.019 v -11.976 l 7.511,-8.774 c -2.474,-1.994 -4.995,-3.811 -7.511,-5.442 v -7.146 c 0.093,0.06 0.185,0.119 0.276,0.18 3.431,2.336 6.821,4.939 10.123,7.812 C 2.196,-44.902 12.815,-14.702 0,0" /></g><g
           transform="translate(802.9998,172.6861)"
           id="g52"><path
             inkscape:connector-curvature="0"
             id="path54"
             style="fill:#0033a0;fill-opacity:1;fill-rule:nonzero;stroke:none"
             d="M 0,0 C 6.62,9.426 7.578,20.244 1.765,25.525 1.218,26.021 0.626,26.446 0,26.813 Z" /></g><g
           transform="translate(839.1456,223.3611)"
           id="g56"><path
             inkscape:connector-curvature="0"
             id="path58"
             style="fill:#0033a0;fill-opacity:1;fill-rule:nonzero;stroke:none"
             d="m 0,0 c 58.732,0 106.515,-47.963 106.515,-106.917 0,-11.957 -2.022,-23.854 -5.934,-35.144 h 26.145 V 20.815 H -36.149 V -6.352 l 0.127,0.046 C -24.459,-2.122 -12.339,0 0,0" /></g><g
           transform="translate(734.8466,192.2448)"
           id="g60"><path
             inkscape:connector-curvature="0"
             id="path62"
             style="fill:#0033a0;fill-opacity:1;fill-rule:nonzero;stroke:none"
             d="m 0,0 c -3.976,3.54 -9.052,6.287 -15.23,8.238 -6.179,1.951 -13.603,2.926 -22.276,2.926 H -81.41 v -81.3 h 43.904 c 15.608,0 27.697,3.378 36.259,10.136 8.565,6.755 12.847,16.926 12.847,30.513 0,6.071 -0.94,11.618 -2.82,16.641 C 6.901,-7.823 3.974,-3.542 0,0 m -14.688,-39.676 c -0.905,-2.747 -2.367,-4.95 -4.391,-6.611 -2.024,-1.666 -4.645,-2.857 -7.86,-3.578 -3.215,-0.724 -7.1,-1.084 -11.651,-1.084 h -19.186 v 42.927 h 19.186 c 4.696,0 8.652,-0.399 11.87,-1.192 3.213,-0.798 5.816,-2.059 7.803,-3.795 1.987,-1.734 3.416,-3.956 4.284,-6.666 0.867,-2.712 1.299,-5.981 1.299,-9.812 0,-4.046 -0.453,-7.442 -1.354,-10.189" /></g><g
           transform="translate(560.1036,155.4961)"
           id="g64"><path
             inkscape:connector-curvature="0"
             id="path66"
             style="fill:#0033a0;fill-opacity:1;fill-rule:nonzero;stroke:none"
             d="M 0,0 H 44.444 V 15.935 H 0 v 13.44 h 52.79 l -0.432,18.539 h -75.991 v -81.301 h 78.159 l 0.434,18.32 H 0 Z" /></g><g
           transform="translate(416.4731,203.4093)"
           id="g68"><path
             inkscape:connector-curvature="0"
             id="path70"
             style="fill:#0033a0;fill-opacity:1;fill-rule:nonzero;stroke:none"
             d="m 0,0 -0.648,-19.186 h 31.11 V -81.3 h 23.739 v 62.114 h 31.11 L 84.771,0 Z" /></g><path
           inkscape:connector-curvature="0"
           id="path72"
           style="fill:#0033a0;fill-opacity:1;fill-rule:nonzero;stroke:none"
           d="m 355.77,122.109 h 24.065 V 203.41 H 355.77 Z" /><g
           transform="translate(288.9936,162.9768)"
           id="g74"><path
             inkscape:connector-curvature="0"
             id="path76"
             style="fill:#0033a0;fill-opacity:1;fill-rule:nonzero;stroke:none"
             d="M 0,0 0.218,-8.673 0,-8.889 -6.179,-2.602 -50.188,40.433 h -19.513 v -81.301 h 21.463 V 1.84 l -0.215,8.782 0.323,0.108 6.181,-6.178 47.911,-45.42 H 21.465 V 40.433 H 0 Z" /></g><g
           transform="translate(153.927,157.5553)"
           id="g78"><path
             inkscape:connector-curvature="0"
             id="path80"
             style="fill:#0033a0;fill-opacity:1;fill-rule:nonzero;stroke:none"
             d="m 0,0 c 0,-6.142 -1.735,-10.714 -5.203,-13.713 -3.468,-3 -9.035,-4.498 -16.694,-4.498 -7.733,0 -13.406,1.498 -17.019,4.498 -3.615,2.999 -5.421,7.571 -5.421,13.713 v 45.854 h -23.63 V 0.216 c 0,-12.573 3.956,-21.951 11.87,-28.131 7.913,-6.177 19.312,-9.266 34.2,-9.266 14.958,0 26.269,3.071 33.93,9.213 7.659,6.143 11.491,15.54 11.491,28.184 V 45.854 H 0 Z" /></g></g></g></g></svg>
