<?xml version="1.0" encoding="UTF-8" standalone="no"?>
<!-- Created with Inkscape (http://www.inkscape.org/) -->

<svg
   xmlns:dc="http://purl.org/dc/elements/1.1/"
   xmlns:cc="http://creativecommons.org/ns#"
   xmlns:rdf="http://www.w3.org/1999/02/22-rdf-syntax-ns#"
   xmlns:svg="http://www.w3.org/2000/svg"
   xmlns="http://www.w3.org/2000/svg"
   version="1.0"
   width="1643.918"
   height="223.489"
   viewBox="-69.023 -50.171 1643.918 223.489"
   id="US_Airways_Logo_Skyteam"
   xml:space="preserve"><metadata
   id="metadata13"><rdf:RDF><cc:Work
       rdf:about=""><dc:format>image/svg+xml</dc:format><dc:type
         rdf:resource="http://purl.org/dc/dcmitype/StillImage" /><dc:title></dc:title></cc:Work></rdf:RDF></metadata><defs
   id="defs11" />
<rect
   width="1643.918"
   height="223.489"
   x="-69.023003"
   y="-50.171001"
   id="rect3"
   style="fill:#0e2e62" />
<path
   d="M 54.94,39.744 H 184.252 V 28.649 H 54.94 v 11.095 z m 0,-34.432 v 11.86 H 184.252 V 5.312 H 54.94 z M 8.649,63.081 H 184.252 V 51.604 H 8.649 v 11.477 z m 0,22.954 H 184.252 V 74.559 H 8.649 v 11.476 z m 0,22.955 H 184.252 V 97.514 H 8.649 V 108.99 z M 43.462,5.312 H 8.649 V 39.744 H 43.462 V 5.312 z"
   id="path5"
   style="fill:#d9dadb" />
<path
   d="m 400.948,47.011 15.749,-0.228 c 0,0 0.47,15.755 -0.235,15.755 -0.705,0 -15.514,0 -15.514,0 V 47.011 l 0,0 z M 257.305,5.877 h 53.827 l -0.235,5.641 h -7.984 c 0,0 -7.991,0 -7.991,5.641 v 67.709 c 0,0 -0.713,21.39 26.097,21.161 0,0 27.272,3.754 28.213,-23.747 V 17.636 c 0,0 -0.436,-3.989 -4.237,-5.89 -1.403,-0.698 -10.806,-0.449 -10.806,-0.449 l 0.173,-5.469 55.064,0.062 -0.463,4.701 -9.416,0.706 c 0,0 -6.001,1.106 -6.347,6.111 -0.339,5.005 0.477,65.828 0.477,65.828 0,0 -2.122,13.157 -12.935,19.51 0,0 -11.524,9.174 -40.442,8.938 0,0 -15.749,0.699 -35.03,-6.823 0,0 -12.464,-5.641 -14.344,-17.158 l -0.463,-69.119 c 0,0 0.227,-6.347 -3.533,-6.347 l -10.584,-0.477 0.463,-6.091 0.496,0.208 0,0 z m 1018.559,0 53.785,0.359 0.123,4.942 h -8.406 c 0,0 -9.697,1.583 -5.115,8.276 l 24.688,41.078 28.393,-42.316 c 0,0 4.334,-6.457 -1.307,-6.277 -5.648,0.172 -13.516,-0.422 -13.516,-0.422 l -0.18,-5.295 h 43.215 l -0.354,4.936 c 0,0 -12.166,-0.878 -16.051,4.59 l -32.617,50.778 v 32.969 c 0,0 0.885,3.887 5.994,4.052 l 9.52,-0.165 0.18,5.281 h -56.246 v -5.281 h 7.928 c 0,0 4.764,-0.18 5.65,-5.656 l 0.172,-31.551 -31.559,-47.964 c 0,0 -2.475,-6.167 -7.232,-6.692 l -7.051,-0.173 V 5.877 h -0.014 z m -311.388,0 48.311,0.532 -0.193,6.298 -6.332,-0.131 c 0,0 -5.643,-0.712 -4.576,3 l 22.213,70.882 27.334,-77.754 15.506,-0.173 27.68,77.415 23.457,-64.722 c 0,0 4.045,-8.642 -2.646,-8.808 l -12.141,-0.463 -0.553,-5.883 h 40.201 l 0.172,5.807 c 0,0 -10.41,-1.929 -13.75,5.821 l -32.084,91.158 -18.701,0.359 -26.27,-76.17 -25.752,76.17 -18.859,-0.359 -29.977,-87.273 c 0,0 -1.41,-8.649 -7.756,-9.347 l -5.641,-0.525 0.357,-5.834 0,0 z m -97.684,8.296 v 40.546 h 21.68 C 902.755,52.43 903.64,33.557 903.64,33.557 902.755,16.453 887.595,14.172 887.595,14.172 h -20.803 l 0,10e-4 z M 826.599,6.056 892.718,5.877 c 0,0 37.371,1.23 36.674,26.803 0,0 -1.584,21.154 -22.916,26.097 0,0 23.102,26.45 43.02,40.028 0,0 8.283,4.584 17.104,4.756 l 0.354,4.771 -25.219,1.044 c 0,0 -15.695,0.886 -30.502,-14.456 l -30.336,-31.731 -14.104,-0.359 -0.18,35.977 c 0,0 -0.18,4.404 4.764,4.756 l 8.635,-0.165 0.178,5.641 -53.244,-0.18 -0.18,-5.454 h 7.756 c 0,0 4.756,-0.885 5.115,-6.706 0,0 0.043,-75.825 -0.172,-79.137 -0.512,-7.646 -12.492,-5.102 -12.492,-5.102 l -0.374,-6.404 0,0 z m -91.934,-0.49 c 1.252,0 55.84,0.062 55.84,0.062 l -0.422,5.807 h -6.209 c 0,0 -9.125,-0.622 -9.299,5.199 v 80.747 c 0,0 1.23,5.821 7.404,6.18 h 8.822 l 0.221,5.767 -56.826,-0.14 v -5.641 l 10.23,-0.165 c 0,0 5.82,-1.064 5.994,-9.001 l -0.174,-74.235 c 0,0 -0.172,-7.225 -5.998,-7.757 l -9.32,-0.968 -0.263,-5.855 0,0 z m 452.074,59.149 15.297,-39.191 14.912,38.984 -30.209,0.207 0,0 z m -40.679,43.741 42.463,-0.139 v -5.351 l -10.535,0.096 c 0,0 -7.469,0.409 -3.721,-9.553 l 9.527,-22.372 h 36.916 l 12.002,25.288 c 0,0 1.258,5.808 -4.143,6.637 l -9.697,-0.096 -0.25,5.482 50.992,-0.132 0.014,-5.261 -6.229,-0.422 c 0,0 -4.148,-0.422 -7.859,-9.125 L 1218.622,6.034 h -19.08 l -38.135,90.39 c 0,0 -4.16,6.637 -8.295,6.637 h -7.053 v 5.395 l 10e-4,0 z m -516.954,-43.741 15.037,-39.191 14.918,38.984 -29.955,0.207 0,0 z m -40.939,43.741 42.475,-0.139 v -5.351 l -10.543,0.096 c 0,0 -7.459,0.409 -3.732,-9.553 l 9.54,-22.372 h 36.903 l 12.021,25.288 c 0,0 1.238,5.808 -4.154,6.637 l -9.526,0.409 -0.422,4.984 51.247,-0.139 -0.248,-5.255 -6.221,-0.414 c 0,0 -4.149,-0.429 -7.883,-9.139 L 660.729,6.043 H 641.656 L 603.507,96.44 c 0,0 -4.147,6.63 -8.289,6.63 h -7.051 v 5.386 l 0,0 z M 1410.728,76.53 h 7.453 c 0,0 9.125,30.682 40.637,28.607 0,0 19.902,-3.318 17.42,-19.911 0,0 0.83,-9.54 -14.926,-14.918 0,0 -39.812,-12.444 -47.693,-29.021 0,0 -7.605,-23.229 21.568,-34.006 0,0 25.705,-10.37 56.385,3.726 l 0.83,24.044 h -6.209 c 0,0 -5.393,-25.289 -28.607,-24.459 0,0 -23.643,1.652 -21.154,18.244 0,0 -0.822,11.607 29.859,19.482 0,0 35.25,10.377 34.006,33.585 0,0 3.713,26.954 -45.613,30.259 0,0 -26.133,-0.822 -41.051,-9.526 l -2.905,-26.106 0,0 z m -974.722,0 h 7.46 c 0,0 9.125,30.682 40.629,28.607 0,0 19.903,-3.318 17.414,-19.911 0,0 0.83,-9.54 -14.932,-14.918 0,0 -39.807,-12.444 -47.682,-29.021 0,0 -4.148,-24.459 21.562,-34.006 0,0 25.711,-10.37 56.392,3.726 l 0.83,24.044 h -6.216 c 0,0 -5.393,-25.289 -28.606,-24.459 0,0 -23.637,1.652 -21.155,18.244 0,0 -0.815,11.607 29.852,19.482 0,0 35.244,10.377 34,33.585 0,0 3.732,26.954 -45.607,30.259 0,0 -26.125,-0.822 -41.051,-9.526 l -2.89,-26.106 0,0 z"
   id="path7"
   style="fill:#ffffff" />
</svg>